# Blender v2.78 (sub 0) OBJ File: 'korobochka.blend'
# www.blender.org
mtllib cockpit.mtl
o Cube.009
v -1.000000 -1.000000 1.000000
v -1.000000 -1.000000 -1.000000
v -1.000000 1.000000 1.000000
v -1.000000 1.000000 -1.000000
v 3.000000 -1.000000 0.500000
v 0.000000 -1.000000 -1.000000
v 0.000000 -1.000000 1.000000
v 0.000000 1.000000 -1.000000
v 0.000000 1.000000 1.000000
v 3.000000 -1.000000 -0.500000
v 2.828457 -0.104009 0.529043
v 2.828457 -0.104009 -0.529042
v 1.992852 0.335716 -0.667858
v 1.992852 0.335716 0.667858
v 1.992851 -1.000000 -0.667858
v 1.992852 -1.000000 0.667858
v 3.000216 -1.000000 0.366158
v 3.000216 -1.000000 -0.366158
v 2.828673 -0.104009 0.387426
v 2.828673 -0.104009 -0.387426
v 0.000000 -1.000000 0.833921
v 0.000000 -1.000000 -0.833922
v 1.992569 -1.000000 -0.523264
v 1.992569 -1.000000 0.523263
v 1.992569 0.335716 -0.523263
v 1.992569 0.335716 0.523263
v 0.000000 1.000000 -0.833922
v 0.000000 1.000000 0.833922
v 2.827299 -1.000000 -0.528783
v 2.827299 -1.000000 0.393118
v 2.655756 -0.208976 -0.559498
v 2.827299 -1.000000 -0.393118
v 2.827299 -1.000000 0.528783
v 2.655756 -0.208976 0.559499
v 0.000000 0.808518 -1.000000
v 1.992852 0.164639 0.667858
v 1.992852 0.164639 -0.667858
v 0.000000 0.808519 1.000000
v 0.000000 -0.872476 -1.000000
v 2.827299 -0.872476 -0.528783
v 1.992851 -0.872476 -0.667858
v 0.000000 -0.872476 1.000000
v 1.992852 -0.872476 0.667858
v 2.827299 -0.872476 0.528783
v 1.811599 -1.000000 0.698067
v 1.811599 0.396134 -0.698066
v 1.811599 0.396134 0.698067
v 1.811598 -1.000000 -0.698067
v 1.811348 0.396134 0.551518
v 1.811348 0.396134 -0.551518
v 1.811347 -1.000000 -0.551519
v 1.811348 -1.000000 0.551518
v 1.811599 0.223201 -0.698066
v 1.811599 0.223201 0.698067
v 1.811598 -0.872476 -0.698067
v 1.811599 -0.872476 0.698067
v -1.000000 1.000000 -0.833922
v -1.000000 1.000000 0.833922
v -1.000000 0.808518 -1.000000
v -1.000000 0.808519 1.000000
v -1.000000 -0.872476 -1.000000
v -1.000000 -0.872476 1.000000
v -1.000000 -1.000000 0.833921
v -1.000000 -1.000000 -0.833922
v -1.000000 0.808520 -0.833922
v -1.000000 0.808520 0.833922
v -1.000000 -0.872480 0.833921
v -1.000000 -0.872480 -0.833922
v 3.000216 -0.872480 -0.366158
v 3.000216 -0.872480 0.366158
v 3.000000 -0.872477 0.500000
v 3.000000 -0.872477 -0.500000
v -0.971133 -0.971133 0.971133
v -0.971132 -0.971133 -0.971133
v -0.971133 0.971133 0.971133
v -0.971132 0.971133 -0.971132
v 2.969124 -0.970669 0.473803
v -0.002988 -0.965551 -0.963886
v -0.002988 -0.965551 0.963886
v -0.007970 0.964458 -0.965749
v -0.007970 0.964458 0.965749
v 2.969124 -0.970669 -0.473803
v 2.794621 -0.127504 0.500707
v 2.794621 -0.127504 -0.500706
v 1.973820 0.303208 -0.634980
v 1.973821 0.303208 0.634981
v 1.987039 -0.964646 -0.632985
v 1.987040 -0.964646 0.632985
v 2.964853 -0.964655 0.366130
v 2.964853 -0.964655 -0.366131
v 2.788178 -0.133337 0.387385
v 2.788178 -0.133338 -0.387385
v 0.000000 -0.950000 0.833921
v 0.000000 -0.950000 -0.833922
v 1.992569 -0.950000 -0.523264
v 1.992569 -0.950002 0.523263
v 1.974070 0.289265 -0.523273
v 1.974071 0.289265 0.523273
v -0.005655 0.950322 -0.833925
v -0.005655 0.950322 0.833925
v 2.821487 -0.964646 -0.493910
v 2.827299 -0.950000 0.393118
v 2.647395 -0.209101 -0.510203
v 2.827299 -0.950000 -0.393118
v 2.821487 -0.964646 0.493910
v 2.647396 -0.209101 0.510204
v -0.003085 0.808518 -0.950096
v 1.984611 0.164536 0.618543
v 1.984610 0.164536 -0.618543
v -0.003085 0.808519 0.950096
v -0.002748 -0.872476 -0.950076
v 2.818992 -0.872466 -0.479479
v 1.984632 -0.872476 -0.618539
v -0.002748 -0.872476 0.950076
v 1.984634 -0.872476 0.618539
v 2.818992 -0.872466 0.479479
v 1.805787 -0.964646 0.663194
v 1.795030 0.363426 -0.664073
v 1.795030 0.363425 0.664074
v 1.805786 -0.964646 -0.663193
v 1.795538 0.348700 0.551532
v 1.795538 0.348700 -0.551532
v 1.811347 -0.950000 -0.551519
v 1.811348 -0.950000 0.551518
v 1.803380 0.223201 -0.648747
v 1.803380 0.223201 0.648748
v 1.803379 -0.872476 -0.648747
v 1.803380 -0.872476 0.648748
v -0.964646 0.964646 -0.833922
v -0.964646 0.964646 0.833922
v -0.964646 0.808518 -0.964645
v -0.964646 0.808519 0.964646
v -0.964646 -0.872476 -0.964646
v -0.964646 -0.872476 0.964646
v -0.964646 -0.964646 0.833921
v -0.964646 -0.964646 -0.833922
v -0.950000 0.808520 -0.833922
v -0.950000 0.808520 0.833922
v -0.950000 -0.872480 0.833921
v -0.950000 -0.872480 -0.833922
v 2.950347 -0.876086 -0.366106
v 2.950347 -0.876086 0.366106
v 2.960973 -0.876237 0.468973
v 2.960973 -0.876237 -0.468973
vn 0.9760 0.2178 0.0015
vn 0.1692 -0.0006 0.9856
vn 0.4656 0.8850 0.0001
vn 0.1655 0.0053 -0.9862
vn 0.0000 -1.0000 0.0000
vn 0.1644 -0.0000 -0.9864
vn 0.1644 0.0000 0.9864
vn 0.3162 0.9487 0.0003
vn 0.3162 0.9487 -0.0003
vn 0.4656 0.8850 -0.0001
vn 0.9760 0.2178 -0.0015
vn 0.1655 0.0053 0.9862
vn 0.1692 -0.0006 -0.9856
vn 0.3163 0.9487 0.0000
vn 0.3162 0.9487 -0.0006
vn 0.3162 0.9487 0.0006
vn 0.0000 0.0000 1.0000
vn 0.0000 1.0000 -0.0000
vn 0.0000 -0.0000 -1.0000
vn -1.0000 0.0000 0.0000
vn 1.0000 0.0000 0.0000
vn 1.0000 0.0000 0.0016
vn 1.0000 0.0000 -0.0016
vn -0.9726 -0.2172 0.0825
vn -0.0759 0.0259 -0.9968
vn -0.4490 -0.8889 -0.0905
vn -0.1085 0.0983 0.9892
vn 0.0882 0.9912 0.0989
vn -0.1328 0.0972 0.9864
vn -0.1624 -0.1506 -0.9752
vn 0.0198 0.9920 0.1247
vn -0.2988 -0.9481 -0.1085
vn -0.2988 -0.9481 0.1085
vn 0.0198 0.9920 -0.1247
vn 0.0882 0.9912 -0.0989
vn 0.1059 0.9944 0.0000
vn -0.4490 -0.8889 0.0905
vn -0.9726 -0.2172 -0.0825
vn -0.1085 0.0983 -0.9892
vn -0.0759 0.0259 0.9968
vn 0.0224 0.9900 0.1390
vn 0.0224 0.9900 -0.1390
vn -0.1624 -0.1569 -0.9742
vn -0.1644 -0.0000 0.9864
vn -0.1283 0.1035 -0.9863
vn -0.1624 -0.1569 0.9742
vn -0.1644 0.0000 -0.9864
vn -0.1624 -0.1506 0.9752
vn -0.1328 0.0972 -0.9864
vn 0.0213 0.9910 -0.1322
vn -0.3159 -0.9488 -0.0000
vn -0.2979 -0.9470 0.1201
vn -0.2979 -0.9470 -0.1201
vn 0.0213 0.9910 0.1322
vn -0.1283 0.1035 0.9863
vn -0.0152 0.9999 0.0000
vn -0.0101 0.9966 0.0818
vn -0.0101 0.9966 -0.0818
vn -0.0101 0.0690 -0.9976
vn -0.0107 -0.9970 0.0761
vn -0.0107 -0.9970 -0.0761
vn -0.0101 0.0690 0.9976
vn -0.0149 -0.9999 0.0000
vn -0.0109 -0.1049 -0.9944
vn -0.0109 -0.1049 0.9944
vn -0.0151 0.0000 -0.9999
vn -0.0151 0.0000 0.9999
vn 0.9956 0.0934 0.0000
vn 0.9950 0.0644 -0.0769
vn 0.9950 0.0644 0.0769
vn 0.9876 -0.1569 0.0000
vn 0.9914 -0.1072 0.0756
vn 0.9914 -0.1072 -0.0756
vn 0.9938 0.0000 -0.1113
vn 0.9938 0.0000 0.1113
vn -0.9869 -0.1616 0.0000
vn -0.1081 -0.1082 -0.9882
vn -0.9904 -0.1209 0.0665
vn -0.9904 -0.1209 -0.0665
vn -0.1081 -0.1082 0.9882
vn 0.9290 -0.3700 -0.0000
vn -0.1441 0.0317 -0.9891
vn -0.1441 0.0317 0.9891
vn -0.1156 0.0904 -0.9892
vn -0.1156 0.0904 0.9892
vn -0.9536 -0.2541 0.1615
vn -0.9536 -0.2541 -0.1615
vn 0.9864 0.0000 -0.1646
vn -0.3025 -0.9525 -0.0345
vn -0.4791 -0.8739 0.0827
vn -0.3025 -0.9525 0.0345
vn -0.4791 -0.8739 -0.0827
vn 0.9864 0.0000 0.1646
vn 0.0000 1.0000 0.0001
vn 0.0000 1.0000 -0.0001
vn -0.9864 -0.0000 0.1644
vn -0.9864 0.0000 -0.1644
vn -0.9487 0.3162 0.0000
vn 0.9936 -0.1131 0.0000
vn 0.9983 0.0001 -0.0583
vn 0.9983 0.0001 0.0583
vn -0.0085 0.0263 0.9996
vn -0.0085 0.0263 -0.9996
vn -0.0721 0.9974 0.0000
usemtl Material.001
s off
f 19//1 11//1 71//1 70//1
f 11//2 34//2 44//2 71//2
f 20//3 12//3 13//3 25//3
f 12//4 31//4 37//4 13//4
f 17//5 5//5 33//5 30//5
f 46//6 53//6 35//6 8//6
f 45//7 56//7 42//7 7//7
f 52//5 45//5 7//5 21//5
f 50//8 46//8 8//8 27//8
f 47//9 49//9 28//9 9//9
f 48//5 51//5 22//5 6//5
f 51//5 52//5 21//5 22//5
f 10//5 18//5 32//5 29//5
f 18//5 17//5 30//5 32//5
f 11//10 19//10 26//10 14//10
f 12//11 20//11 69//11 72//11
f 11//12 14//12 36//12 34//12
f 12//13 72//13 40//13 31//13
f 32//5 30//5 24//5 23//5
f 30//5 33//5 16//5 24//5
f 29//5 32//5 23//5 15//5
f 16//7 33//7 44//7 43//7
f 53//6 37//6 41//6 55//6
f 54//7 36//7 14//7 47//7
f 41//6 40//6 29//6 15//6
f 55//6 41//6 15//6 48//6
f 56//7 43//7 36//7 54//7
f 39//6 55//6 48//6 6//6
f 38//7 54//7 47//7 9//7
f 23//5 24//5 52//5 51//5
f 15//5 23//5 51//5 48//5
f 26//14 25//14 50//14 49//14
f 14//15 26//15 49//15 47//15
f 25//16 13//16 46//16 50//16
f 24//5 16//5 45//5 52//5
f 16//7 43//7 56//7 45//7
f 13//6 37//6 53//6 46//6
f 22//5 21//5 63//5 64//5
f 1//5 63//5 21//5 7//5
f 2//5 6//5 22//5 64//5
f 38//17 9//17 3//17 60//17
f 58//18 3//18 9//18 28//18
f 4//18 57//18 27//18 8//18
f 4//19 8//19 35//19 59//19
f 57//18 58//18 28//18 27//18
f 62//17 1//17 7//17 42//17
f 61//19 39//19 6//19 2//19
f 60//17 62//17 42//17 38//17
f 59//19 35//19 39//19 61//19
f 58//20 57//20 65//20 66//20
f 57//20 4//20 59//20 65//20
f 3//20 58//20 66//20 60//20
f 64//20 63//20 67//20 68//20
f 63//20 1//20 62//20 67//20
f 64//20 68//20 61//20 2//20
f 61//20 68//20 65//20 59//20
f 62//20 60//20 66//20 67//20
f 65//20 68//20 67//20 66//20
f 17//21 18//21 69//21 70//21
f 71//7 44//7 33//7 5//7
f 70//22 71//22 5//22 17//22
f 72//23 69//23 18//23 10//23
f 40//6 72//6 10//6 29//6
f 91//24 142//24 143//24 83//24
f 83//25 143//25 116//25 106//25
f 92//26 97//26 85//26 84//26
f 84//27 85//27 109//27 103//27
f 89//28 102//28 105//28 77//28
f 118//29 80//29 107//29 125//29
f 117//30 79//30 114//30 128//30
f 124//31 93//31 79//31 117//31
f 122//32 99//32 80//32 118//32
f 119//33 81//33 100//33 121//33
f 120//34 78//34 94//34 123//34
f 123//18 94//18 93//18 124//18
f 82//35 101//35 104//35 90//35
f 90//36 104//36 102//36 89//36
f 83//37 86//37 98//37 91//37
f 84//38 144//38 141//38 92//38
f 83//39 106//39 108//39 86//39
f 84//40 103//40 112//40 144//40
f 104//18 95//18 96//18 102//18
f 102//41 96//41 88//41 105//41
f 101//42 87//42 95//42 104//42
f 88//43 115//43 116//43 105//43
f 125//44 127//44 113//44 109//44
f 126//45 119//45 86//45 108//45
f 113//46 87//46 101//46 112//46
f 127//46 120//46 87//46 113//46
f 128//47 126//47 108//47 115//47
f 111//48 78//48 120//48 127//48
f 110//49 81//49 119//49 126//49
f 95//18 123//18 124//18 96//18
f 87//50 120//50 123//50 95//50
f 98//51 121//51 122//51 97//51
f 86//52 119//52 121//52 98//52
f 97//53 122//53 118//53 85//53
f 96//54 124//54 117//54 88//54
f 88//43 117//43 128//43 115//43
f 85//55 118//55 125//55 109//55
f 94//56 136//56 135//56 93//56
f 73//57 79//57 93//57 135//57
f 74//58 136//58 94//58 78//58
f 110//59 132//59 75//59 81//59
f 130//60 100//60 81//60 75//60
f 76//61 80//61 99//61 129//61
f 76//62 131//62 107//62 80//62
f 129//63 99//63 100//63 130//63
f 134//64 114//64 79//64 73//64
f 133//65 74//65 78//65 111//65
f 132//66 110//66 114//66 134//66
f 131//67 133//67 111//67 107//67
f 130//68 138//68 137//68 129//68
f 129//69 137//69 131//69 76//69
f 75//70 132//70 138//70 130//70
f 136//71 140//71 139//71 135//71
f 135//72 139//72 134//72 73//72
f 136//73 74//73 133//73 140//73
f 133//74 131//74 137//74 140//74
f 134//75 139//75 138//75 132//75
f 137//21 138//21 139//21 140//21
f 89//76 142//76 141//76 90//76
f 143//77 77//77 105//77 116//77
f 142//78 89//78 77//78 143//78
f 144//79 82//79 90//79 141//79
f 112//80 101//80 82//80 144//80
f 25//81 26//81 98//81 97//81
f 28//82 49//82 121//82 100//82
f 50//83 27//83 99//83 122//83
f 26//84 19//84 91//84 98//84
f 20//85 25//85 97//85 92//85
f 44//86 34//86 106//86 116//86
f 31//87 40//87 112//87 103//87
f 36//88 43//88 115//88 108//88
f 35//89 53//89 125//89 107//89
f 34//90 36//90 108//90 106//90
f 54//91 38//91 110//91 126//91
f 37//92 31//92 103//92 109//92
f 41//93 37//93 109//93 113//93
f 43//94 44//94 116//94 115//94
f 40//95 41//95 113//95 112//95
f 55//18 39//18 111//18 127//18
f 42//18 56//18 128//18 114//18
f 56//96 54//96 126//96 128//96
f 53//97 55//97 127//97 125//97
f 49//98 50//98 122//98 121//98
f 27//99 28//99 100//99 99//99
f 38//100 42//100 114//100 110//100
f 39//101 35//101 107//101 111//101
f 69//102 20//102 92//102 141//102
f 19//103 70//103 142//103 91//103
f 70//104 69//104 141//104 142//104
