# Blender v2.78 (sub 0) OBJ File: 'ebu.blend'
# www.blender.org
mtllib ebu.mtl
o Cube.004
v 1.000000 -1.000000 -1.000000
v 1.000000 -1.000000 1.000000
v -1.000000 -1.000000 1.000000
v -1.000000 -1.000000 -1.000000
v 1.000000 1.000000 -0.999999
v -1.000000 1.000000 1.000000
v -1.000000 1.000000 -1.000000
vn 0.0000 -1.0000 0.0000
vn -1.0000 -0.0000 -0.0000
vn 0.0000 0.0000 -1.0000
vn 0.5773 0.5774 0.5774
vn 0.0000 1.0000 0.0000
vn -0.0000 0.0000 1.0000
vn 1.0000 -0.0000 0.0000
usemtl Material.001
s off
f 1//1 2//1 3//1 4//1
f 3//2 6//2 7//2 4//2
f 5//3 1//3 4//3 7//3
f 6//4 2//4 5//4
f 6//5 5//5 7//5
f 2//6 6//6 3//6
f 1//7 5//7 2//7
