# Blender v2.78 (sub 0) OBJ File: 'half.blend'
# www.blender.org
mtllib half.mtl
o Cube.003
v 0.999999 -1.000000 -1.000001
v 1.000001 -1.000000 0.999999
v -0.999999 -1.000000 1.000000
v -1.000000 -1.000000 -1.000000
v -1.000000 1.000000 1.000000
v -1.000001 1.000000 -0.999999
vn 0.0000 -1.0000 -0.0000
vn 0.0000 0.0000 1.0000
vn -1.0000 -0.0000 0.0000
vn -0.0000 0.0000 -1.0000
vn 0.7071 0.7071 -0.0000
usemtl Material.001
s off
f 1//1 2//1 3//1 4//1
f 2//2 5//2 3//2
f 3//3 5//3 6//3 4//3
f 1//4 4//4 6//4
f 1//5 6//5 5//5 2//5
