# Blender v2.78 (sub 0) OBJ File: ''
# www.blender.org
mtllib plane.mtl
o Plane
v -27.383865 -0.257640 27.595705
v 26.746443 -0.421319 24.526537
v -28.539536 0.630818 -28.630224
v 28.879385 0.293889 -25.088991
v -25.295254 1.195067 1.451831
v 1.864969 -1.756904 26.458178
v 28.647804 2.011699 0.493574
v 0.484398 -0.006681 -26.817213
v -0.302521 -1.710320 -0.420053
v -26.947590 0.270160 14.208675
v 13.045418 0.420392 24.359818
v 27.167389 0.381163 -13.542248
v -13.342841 0.085248 -27.006746
v -27.346718 -0.003795 -13.816401
v -12.896944 0.702847 28.478857
v 27.175453 2.038104 12.152029
v 13.650071 1.346583 -28.982246
v -0.980291 -0.381290 -14.014345
v 1.629025 -0.600193 14.330242
v -12.043422 -0.283459 -1.346512
v 12.833694 -0.381364 1.269072
v 15.915551 2.299764 14.463274
v -13.099693 -0.951027 14.081570
v -14.155962 1.082826 -13.679870
v 11.638670 -0.471297 -15.873505
v -26.812519 -0.381608 20.286886
v 20.503010 -0.166927 27.297001
v 29.250734 -1.568609 -21.148893
v -19.870289 -0.843295 -27.219147
v -28.226810 0.388476 -7.313319
v -6.579208 -0.024935 27.236177
v 28.603670 0.317820 5.414444
v 5.808652 2.167823 -26.634279
v -1.499663 -1.022047 -18.628401
v 0.404501 0.885459 6.438861
v -20.551729 -0.530751 1.147698
v 6.811062 0.374287 -0.195680
v -25.299076 0.696712 6.633343
v 7.149187 0.851730 26.143667
v 27.389027 0.025620 -6.661167
v -8.442795 -1.612999 -25.133469
v -27.006720 0.026406 -20.293430
v -21.205330 2.345346 26.044434
v 25.282639 -0.385539 22.036934
v 18.580275 -1.335731 -28.352072
v -0.855191 -1.284048 -6.919669
v 1.837915 0.124823 21.451990
v -5.387501 -1.618791 -0.588700
v 20.568686 -0.712886 0.165504
v 11.683768 -0.906325 6.745806
v 12.648960 -0.641988 18.817448
v 7.377116 -2.106308 14.397172
v 19.316452 1.839769 12.249181
v -15.354052 0.347413 6.697802
v -13.445387 0.234320 23.402683
v -20.010653 -1.902594 11.688691
v -6.686792 0.046808 13.295469
v -11.848804 -0.201439 -19.688221
v -13.289358 0.065820 -6.612701
v -19.684296 1.623164 -14.435658
v -6.536947 1.059417 -15.115294
v 11.844089 -2.296287 -19.268154
v 12.047936 0.447300 -6.641552
v 5.933115 2.154610 -13.315607
v 18.376385 -0.624484 -14.481327
v 21.993832 0.339822 -5.543080
v 6.844471 0.278703 -6.074622
v 5.951977 0.547097 -18.589182
v -7.087487 -0.901370 -5.548841
v -21.684124 0.137772 -4.806816
v -21.468348 1.111796 -18.981705
v -6.641628 2.326040 18.755129
v -21.292662 -0.117263 21.113848
v -20.483152 -0.287922 5.751129
v 21.599928 -0.882638 20.178123
v 7.183424 0.080604 22.934963
v 8.651926 0.060968 7.017524
v 21.587326 -2.341522 8.105956
v -5.222176 -0.353202 5.800245
v -6.874602 -0.579920 -18.947491
v 20.058889 1.012778 -22.540648
v -27.108206 -0.296048 23.920191
v 23.080162 -0.390818 26.497391
v 28.627001 -0.513788 -23.199429
v -23.806934 0.138156 -27.955179
v -26.208195 0.527099 -3.306036
v -2.559296 -0.434450 27.168798
v 27.881760 0.832932 2.535568
v 3.165477 0.754228 -26.963287
v -0.618338 -0.462315 -22.699366
v 0.171523 -0.362354 3.064230
v -23.225065 0.353797 1.660838
v 3.305493 -0.565933 -0.091065
v -26.150431 0.490038 10.407822
v 10.145851 0.523847 25.895552
v 27.301754 0.099719 -10.298222
v -10.725513 -0.515553 -26.780720
v -26.956383 0.087595 -17.228409
v -16.862316 0.887002 27.079826
v 26.419052 1.314762 17.218513
v 16.527163 -0.238851 -28.667734
v -1.055074 -0.931146 -10.670829
v 1.523766 -0.223236 17.635784
v -9.387186 -0.615547 -0.539196
v 16.983698 -0.370809 0.607862
v 12.570588 -0.343524 4.234864
v 14.313776 0.270469 16.488617
v 4.326658 -1.072969 14.213927
v 17.565586 1.749834 13.443348
v -13.395606 0.302687 2.666908
v -13.712425 -0.093529 18.272745
v -23.988148 -0.783543 13.342411
v -9.833653 -0.396390 13.706451
v -12.558528 0.360154 -23.670256
v -13.705442 0.335115 -10.385135
v -23.616377 0.875798 -14.425921
v -10.344812 0.886342 -14.149461
v 13.065934 -0.271087 -24.105286
v 12.669475 -0.047101 -11.176457
v 2.687117 0.776690 -13.651224
v 15.529638 -0.437056 -14.700613
v -26.813791 0.105531 17.044386
v 16.860685 0.131250 26.142710
v 28.064909 -0.477741 -17.215364
v -16.953037 -0.857999 -27.092964
v -27.732698 -0.067518 -10.461041
v -9.870778 0.022017 27.752039
v 27.944811 0.754643 9.188265
v 9.471977 1.306778 -27.335728
v -0.879622 -0.474261 -16.540869
v 0.257368 0.097745 9.954434
v -16.120985 -0.294972 0.137538
v 9.733570 0.427554 0.727812
v -25.226738 0.988729 3.846746
v 4.337783 -0.314066 26.541252
v 27.821846 0.784930 -3.117250
v -3.899143 -0.655038 -26.063881
v -27.661295 0.425435 -24.202797
v -24.095150 0.866775 26.937292
v 26.803520 -0.285764 23.233006
v 23.840431 -0.098858 -26.603045
v -0.582315 -1.091965 -3.478656
v 1.446008 -0.589061 23.983192
v -2.964810 -1.379499 -0.447663
v 25.132450 0.465217 0.407734
v 13.741739 0.541654 10.037526
v 13.394025 -0.028885 21.471254
v 11.364627 -0.376704 13.818326
v 23.319092 1.951086 12.253640
v -13.866037 -0.206749 10.581046
v -13.736116 0.262360 25.695333
v -16.556845 -1.119965 12.995607
v -2.699993 -0.212537 13.755318
v -13.096805 0.464116 -16.728729
v -12.944535 0.019505 -3.849141
v -16.431229 0.813066 -14.209889
v -3.680179 -0.000334 -13.910898
v 12.121059 -1.035220 -17.551750
v 12.653677 0.004970 -2.732090
v 9.158381 0.979487 -14.348448
v 22.733137 -0.215385 -13.827653
v 20.328302 -0.107712 -9.733227
v 21.609205 0.056845 -2.307188
v 17.343044 0.891687 -6.466494
v 23.994179 0.314532 -6.323370
v 6.492907 0.975228 -9.903061
v 6.861102 0.255152 -3.078175
v 2.975101 -0.635586 -6.192471
v 9.723805 -0.020390 -6.262777
v 6.234350 1.275038 -22.725277
v 5.777539 0.550264 -16.181696
v 2.475500 -0.125250 -18.989868
v 9.253253 -1.106120 -18.843832
v -6.711751 0.060419 -10.197503
v -6.048120 -0.906114 -3.067850
v -9.876099 -0.778002 -6.200637
v -3.759303 -1.162209 -6.193801
v -20.390842 0.484171 -9.549173
v -20.645981 0.012824 -2.569658
v -24.855413 0.004550 -6.748177
v -16.711269 0.325401 -5.828225
v -20.949007 0.172301 -23.356165
v -20.467278 1.084057 -16.680918
v -23.619722 0.599127 -19.878489
v -16.752066 0.322254 -19.566965
v -6.694570 0.842652 16.272165
v -6.793231 1.080140 23.337852
v -10.007696 1.011140 20.965775
v -2.738539 1.203654 19.791864
v -20.480734 -0.804752 16.554077
v -20.840048 1.126766 23.457661
v -23.998028 -0.144427 20.619038
v -17.369022 0.740567 21.727783
v -20.390455 -0.249747 3.441962
v -20.170343 -0.919373 9.052844
v -22.769405 0.283022 6.479059
v -17.572178 -0.403883 5.833551
v 20.253630 -0.150427 16.618261
v 21.190929 -0.331163 24.003193
v 17.228298 -0.455310 19.633339
v 24.007605 -0.479747 20.929214
v 7.673469 -0.533995 18.557753
v 7.075775 0.411717 24.365459
v 4.245749 -0.178485 21.505367
v 9.572234 -0.052133 20.606621
v 7.502451 0.108703 3.321485
v 7.916548 -0.706893 10.823037
v 3.943775 0.333570 6.809943
v 10.220256 -0.324335 7.222777
v 21.216557 -0.997089 3.800712
v 20.591000 -0.369245 10.158891
v 16.623386 -1.256934 7.485355
v 24.709707 -0.441401 6.513963
v -5.786618 -0.694350 3.115546
v -5.993773 -0.095107 9.207328
v -9.770460 -0.415536 6.476166
v -2.766437 0.766154 6.614065
v -7.777935 -1.114843 -22.613651
v -6.551605 -0.029028 -16.817205
v -9.097850 -0.024620 -19.491800
v -3.863307 -0.594269 -19.013859
v 19.530653 0.018505 -25.667757
v 19.186419 0.260289 -18.371759
v 15.868113 -0.228108 -21.191341
v 24.191061 -0.581310 -20.985764
v 23.822823 -0.155441 -17.571434
v 16.416225 -0.770157 -18.094593
v 16.204243 -0.191911 -24.247965
v -4.249920 -0.705816 -16.697844
v -9.920429 0.295835 -16.895973
v -9.499949 -0.647439 -22.578369
v -3.214056 0.235981 10.026484
v -10.093017 -0.147182 10.004065
v -9.592860 -0.379982 2.849415
v 24.166092 0.519012 9.729432
v 17.645023 -0.170832 10.023219
v 17.179010 -0.943973 3.761234
v 10.984326 -0.177297 10.725038
v 4.431327 0.173947 10.597532
v 3.420229 -0.158193 3.118800
v 9.901520 -0.222983 22.853733
v 4.133451 0.040028 23.800697
v 4.330175 -0.463478 18.013130
v 23.759943 -0.341184 23.596066
v 17.145149 -0.217540 23.278229
v 17.423265 0.456328 16.625559
v -17.218298 -0.830119 9.434253
v -23.230213 -0.310646 9.713388
v -23.104372 0.112206 4.000226
v -17.139933 0.633969 24.591187
v -23.769939 0.211000 23.739338
v -23.755314 -0.441722 16.913027
v -2.640374 -0.042120 23.682198
v -9.998854 0.556487 24.360691
v -9.359028 0.241114 16.957827
v -16.932100 0.876457 -16.774666
v -23.765947 0.598078 -16.886660
v -23.898495 0.346268 -23.607292
v -16.815475 -0.244726 -2.997725
v -24.080463 0.408674 -3.007569
v -24.411612 0.208876 -10.011455
v -2.818394 -1.453614 -3.189143
v -9.984605 -0.026825 -3.302332
v -10.662819 0.575953 -10.542100
v 9.242266 0.257906 -16.815279
v 2.831116 0.644189 -16.240278
v 2.539126 0.413684 -22.437048
v 9.807345 0.021820 -3.069978
v 3.135209 -0.375499 -3.233924
v 2.708998 -0.325462 -9.617429
v 24.273849 0.504290 -2.570657
v 17.161980 -0.257632 -3.302415
v 16.333904 0.042986 -10.647869
v 23.662668 0.090321 -10.235145
v 9.000800 0.155520 -10.017212
v 9.502707 0.195382 -23.417250
v -3.360399 -0.305806 -10.077492
v -16.978939 0.524951 -9.935408
v -16.651634 0.071128 -22.750288
v -2.561733 0.353160 16.937817
v -16.919794 -0.234186 17.726961
v -17.037470 -0.136516 3.185498
v 23.359653 0.939706 16.775558
v 10.700809 -0.241950 17.445404
v 9.760509 0.018947 3.618554
v 24.319014 -0.459254 3.649844
v -2.530253 -0.408356 3.260204
v -3.951771 -0.569140 -22.671843
v 24.417040 -0.442021 -24.667660
vn -0.1282 0.9466 0.2957
vn -0.0939 0.9950 0.0345
vn 0.0406 0.9494 -0.3113
vn -0.3257 0.9079 0.2640
vn 0.1809 0.9811 0.0694
vn -0.3532 0.9205 0.1670
vn -0.0741 0.9823 0.1722
vn -0.0923 0.9867 -0.1337
vn 0.0013 0.9815 -0.1916
vn 0.1340 0.9806 -0.1432
vn -0.1702 0.9769 -0.1291
vn -0.0162 0.9907 0.1354
vn 0.2104 0.9716 0.1086
vn 0.1429 0.9427 0.3015
vn 0.2665 0.9637 0.0169
vn -0.0751 0.9971 0.0081
vn 0.0711 0.9884 -0.1342
vn -0.0202 0.9760 0.2166
vn -0.0151 0.9917 -0.1275
vn -0.3416 0.8908 0.2996
vn -0.1981 0.9796 -0.0330
vn -0.0862 0.9942 0.0644
vn -0.3357 0.9332 0.1285
vn -0.0785 0.9863 -0.1450
vn 0.2368 0.7876 -0.5689
vn 0.0559 0.9864 0.1547
vn 0.1665 0.9723 -0.1637
vn -0.0420 0.9988 0.0233
vn -0.1351 0.9765 0.1678
vn 0.0633 0.9958 -0.0657
vn 0.0237 0.9938 0.1085
vn 0.1810 0.9762 -0.1197
vn -0.1871 0.9817 0.0356
vn 0.1032 0.9779 -0.1818
vn -0.2104 0.9560 -0.2043
vn -0.1702 0.9644 0.2025
vn 0.1114 0.9491 0.2947
vn 0.1542 0.9747 -0.1620
vn -0.1497 0.9538 -0.2605
vn 0.1128 0.9935 0.0165
vn 0.2213 0.9750 -0.0218
vn 0.2571 0.9488 0.1837
vn -0.3012 0.9331 0.1964
vn 0.2000 0.9060 0.3729
vn 0.0788 0.9919 -0.0996
vn -0.0254 0.9983 -0.0532
vn 0.1933 0.9443 -0.2661
vn -0.0554 0.9873 -0.1489
vn 0.0150 0.9955 -0.0931
vn -0.1571 0.9876 -0.0020
vn 0.1319 0.9834 0.1244
vn -0.0852 0.9773 -0.1940
vn 0.0576 0.9913 0.1180
vn 0.1848 0.8174 -0.5456
vn -0.1718 0.9599 -0.2215
vn 0.1686 0.9750 -0.1451
vn -0.0268 0.9964 -0.0799
vn 0.0098 0.9822 0.1877
vn 0.4161 0.8941 -0.1657
vn 0.1709 0.9720 -0.1611
vn 0.0435 0.9940 -0.1008
vn 0.1187 0.9721 -0.2022
vn -0.2730 0.9491 0.1569
vn 0.1408 0.9751 -0.1715
vn 0.2035 0.9762 0.0753
vn -0.0184 0.9928 0.1183
vn -0.0230 0.9933 -0.1132
vn -0.2940 0.9514 -0.0917
vn -0.0221 0.9834 -0.1799
vn -0.1479 0.9882 0.0404
vn 0.2338 0.9547 0.1841
vn -0.2267 0.9524 0.2040
vn -0.2377 0.9610 -0.1415
vn 0.1293 0.9870 -0.0957
vn 0.3817 0.8401 -0.3854
vn 0.0257 0.9882 -0.1508
vn -0.0006 0.9846 -0.1750
vn 0.0333 0.9800 -0.1960
vn -0.0241 0.9346 -0.3550
vn 0.2919 0.9516 -0.0959
vn 0.1484 0.9884 -0.0319
vn 0.2709 0.9387 -0.2133
vn -0.2644 0.9644 -0.0088
vn -0.0179 0.9991 0.0388
vn 0.0586 0.9902 0.1264
vn 0.0772 0.9967 0.0263
vn -0.0664 0.9871 0.1456
vn -0.0665 0.9977 0.0100
vn 0.1659 0.9833 -0.0743
vn 0.1523 0.9875 0.0413
vn 0.0277 0.9984 -0.0500
vn -0.4573 0.7135 -0.5308
vn -0.1350 0.7467 -0.6513
vn -0.0761 0.8846 -0.4601
vn 0.1430 0.8778 -0.4571
vn 0.1182 0.8866 -0.4473
vn -0.1204 0.7800 -0.6141
vn 0.0783 0.9931 0.0877
vn 0.0934 0.9827 0.1597
vn 0.1081 0.9731 0.2034
vn -0.0330 0.9959 0.0847
vn -0.2786 0.9354 0.2177
vn -0.4211 0.9059 -0.0447
vn 0.0445 0.9910 0.1265
vn 0.0384 0.9723 0.2305
vn 0.2424 0.9032 0.3541
vn -0.1749 0.9560 -0.2354
vn 0.0649 0.9673 -0.2451
vn 0.0035 0.9981 -0.0608
vn 0.1094 0.9927 -0.0499
vn 0.0861 0.9661 -0.2436
vn -0.1044 0.9745 -0.1984
vn -0.0611 0.9935 0.0956
vn -0.3504 0.8870 0.3007
vn -0.2581 0.9661 -0.0025
vn 0.1336 0.9819 -0.1344
vn 0.1106 0.9899 -0.0892
vn 0.0057 0.9936 -0.1132
vn -0.0705 0.9912 -0.1125
vn 0.0433 0.9990 -0.0089
vn 0.0124 0.9989 0.0463
vn 0.0438 0.9894 -0.1383
vn 0.1207 0.9850 -0.1234
vn 0.0708 0.9949 -0.0717
vn 0.1672 0.8048 0.5695
vn -0.0828 0.9515 0.2964
vn 0.1225 0.9676 0.2207
vn -0.0075 0.9883 0.1522
vn -0.1886 0.9567 0.2215
vn -0.1707 0.9694 0.1765
vn 0.2377 0.9591 0.1540
vn 0.3347 0.9292 0.1567
vn 0.3060 0.9205 0.2432
vn 0.3728 0.9251 0.0726
vn 0.2672 0.9636 0.0089
vn 0.1743 0.9840 -0.0361
vn 0.0022 0.9769 -0.2137
vn 0.2936 0.9195 -0.2615
vn 0.1268 0.9796 -0.1557
vn -0.1182 0.9908 -0.0659
vn -0.2515 0.9605 -0.1190
vn -0.4152 0.8498 -0.3249
vn 0.2505 0.9672 -0.0411
vn 0.0517 0.9982 0.0291
vn 0.0582 0.9921 -0.1108
vn 0.2136 0.9369 0.2769
vn 0.1747 0.9663 0.1890
vn 0.2193 0.9482 0.2298
vn -0.1118 0.9913 0.0688
vn 0.0589 0.9982 0.0060
vn -0.0194 0.9752 0.2203
vn -0.1567 0.9677 -0.1973
vn -0.1989 0.9720 -0.1251
vn -0.4266 0.8416 -0.3313
vn 0.1094 0.9868 -0.1196
vn 0.1495 0.9793 -0.1367
vn 0.0322 0.9949 -0.0952
vn -0.1611 0.9869 -0.0123
vn -0.1982 0.9794 -0.0392
vn -0.1629 0.9770 -0.1373
vn 0.0681 0.9977 -0.0064
vn -0.0728 0.9970 0.0280
vn -0.0327 0.9887 -0.1464
vn 0.0294 0.9910 0.1305
vn 0.0173 0.9963 0.0843
vn -0.0150 0.9977 0.0667
vn 0.1072 0.9884 -0.1079
vn 0.2338 0.9664 -0.1067
vn 0.2055 0.9776 0.0465
vn -0.1599 0.9848 0.0683
vn 0.0215 0.9991 -0.0361
vn -0.0741 0.9959 0.0524
vn 0.1234 0.9923 0.0090
vn 0.0537 0.9918 0.1160
vn -0.0013 0.9956 0.0935
vn 0.1561 0.9794 -0.1284
vn 0.0281 0.9869 0.1591
vn 0.2228 0.9573 0.1842
vn 0.0074 0.9884 0.1514
vn 0.0842 0.9794 0.1835
vn 0.0552 0.9675 0.2467
vn 0.2316 0.9323 -0.2777
vn 0.1006 0.9115 -0.3989
vn 0.3649 0.9022 -0.2299
vn -0.2497 0.9459 -0.2072
vn -0.2898 0.9555 -0.0560
vn -0.1755 0.9382 -0.2983
vn -0.2704 0.9621 0.0345
vn -0.2383 0.9648 0.1110
vn -0.2090 0.9661 0.1519
vn 0.0909 0.9959 -0.0045
vn 0.0429 0.9961 -0.0775
vn 0.1382 0.9904 -0.0043
vn -0.1704 0.9837 -0.0580
vn -0.2542 0.9565 0.1432
vn -0.2124 0.9771 0.0158
vn -0.2633 0.9418 0.2090
vn -0.1854 0.9773 0.1023
vn -0.2715 0.9499 0.1549
vn -0.0875 0.9961 0.0120
vn -0.2170 0.9666 0.1362
vn -0.2556 0.9608 -0.1078
vn -0.0092 0.9754 0.2200
vn 0.0380 0.9973 0.0630
vn -0.0060 0.9907 0.1359
vn 0.0071 0.9945 -0.1043
vn -0.0471 0.9876 -0.1501
vn 0.1194 0.9747 -0.1891
vn -0.0771 0.9945 -0.0714
vn -0.0492 0.9963 -0.0705
vn 0.0384 0.9990 -0.0220
vn 0.3592 0.9079 0.2162
vn 0.2071 0.9748 0.0828
vn -0.0538 0.9978 -0.0377
vn 0.3037 0.9271 0.2197
vn 0.4019 0.8861 0.2310
vn 0.3026 0.8828 0.3594
vn 0.1928 0.9710 0.1415
vn 0.1081 0.9703 0.2166
vn 0.1794 0.9709 0.1585
vn 0.1170 0.9787 0.1685
vn -0.0172 0.9981 0.0596
vn 0.0765 0.9957 0.0526
vn 0.0387 0.9731 -0.2270
vn 0.0976 0.9843 -0.1471
vn 0.0308 0.9987 0.0407
vn 0.1194 0.9689 -0.2167
vn 0.2589 0.8872 -0.3820
vn 0.2309 0.9568 -0.1767
vn -0.1129 0.9710 -0.2105
vn -0.1352 0.9687 -0.2080
vn 0.0938 0.9859 -0.1388
vn -0.0592 0.9942 -0.0902
vn 0.0022 0.9981 0.0618
vn -0.1966 0.9796 -0.0407
vn -0.1645 0.9289 0.3317
vn -0.2968 0.8972 0.3270
vn -0.2115 0.9267 0.3107
vn -0.3183 0.9227 -0.2173
vn -0.1109 0.9854 -0.1290
vn 0.0814 0.9820 0.1707
vn -0.0181 0.9941 0.1066
vn 0.1197 0.9924 0.0268
vn 0.2082 0.9653 0.1576
vn -0.2173 0.9622 0.1639
vn -0.3068 0.9295 0.2046
vn -0.2277 0.9653 0.1277
vn -0.0769 0.9660 -0.2467
vn -0.1962 0.9535 -0.2287
vn -0.0478 0.9398 -0.3384
vn -0.1852 0.9796 -0.0776
vn -0.0784 0.9952 -0.0587
vn 0.0510 0.9954 0.0806
vn -0.0185 0.9780 -0.2079
vn 0.2555 0.9578 -0.1316
vn 0.0838 0.9767 0.1976
usemtl Material.001
s off
f 289//1 84//1 4//1 141//1
f 288//2 90//2 8//2 137//2
f 287//3 91//3 9//3 144//3
f 286//4 88//4 7//4 145//4
f 285//5 106//5 21//5 133//5
f 284//6 107//6 22//6 148//6
f 283//7 100//7 16//7 149//7
f 282//8 110//8 20//8 132//8
f 281//9 111//9 23//9 152//9
f 280//10 103//10 19//10 153//10
f 279//11 114//11 13//11 125//11
f 278//12 115//12 24//12 156//12
f 277//13 102//13 18//13 157//13
f 276//14 118//14 17//14 129//14
f 275//15 119//15 25//15 160//15
f 274//16 96//16 12//16 161//16
f 273//17 162//17 65//17 121//17
f 272//18 163//18 66//18 164//18
f 271//19 136//19 40//19 165//19
f 270//20 166//20 64//20 120//20
f 269//21 167//21 67//21 168//21
f 268//22 159//22 63//22 169//22
f 267//23 170//23 33//23 89//23
f 266//24 171//24 68//24 172//24
f 265//25 158//25 62//25 173//25
f 264//26 174//26 61//26 117//26
f 263//27 175//27 69//27 176//27
f 262//28 142//28 46//28 177//28
f 261//29 178//29 60//29 116//29
f 260//30 179//30 70//30 180//30
f 259//31 155//31 59//31 181//31
f 258//32 182//32 29//32 85//32
f 257//33 183//33 71//33 184//33
f 256//34 154//34 58//34 185//34
f 255//35 186//35 57//35 113//35
f 254//36 187//36 72//36 188//36
f 253//37 143//37 47//37 189//37
f 252//38 190//38 56//38 112//38
f 251//39 191//39 73//39 192//39
f 250//40 151//40 55//40 193//40
f 249//41 194//41 36//41 92//41
f 248//42 195//42 74//42 196//42
f 247//43 150//43 54//43 197//43
f 246//44 198//44 53//44 109//44
f 245//45 199//45 75//45 200//45
f 244//46 140//46 44//46 201//46
f 243//47 202//47 52//47 108//47
f 242//48 203//48 76//48 204//48
f 241//49 147//49 51//49 205//49
f 240//50 206//50 37//50 93//50
f 239//51 207//51 77//51 208//51
f 238//52 146//52 50//52 209//52
f 237//53 210//53 49//53 105//53
f 236//54 211//54 78//54 212//54
f 235//55 128//55 32//55 213//55
f 234//56 214//56 48//56 104//56
f 233//57 215//57 79//57 216//57
f 232//58 131//58 35//58 217//58
f 231//59 218//59 41//59 97//59
f 230//60 219//60 80//60 220//60
f 229//61 130//61 34//61 221//61
f 228//62 222//62 45//62 101//62
f 227//63 223//63 81//63 224//63
f 226//64 124//64 28//64 225//64
f 223//65 226//65 225//65 81//65
f 65//66 161//66 226//66 223//66
f 161//67 12//67 124//67 226//67
f 158//68 227//68 224//68 62//68
f 25//69 121//69 227//69 158//69
f 121//70 65//70 223//70 227//70
f 118//71 228//71 101//71 17//71
f 62//72 224//72 228//72 118//72
f 224//73 81//73 222//73 228//73
f 219//74 229//74 221//74 80//74
f 61//75 157//75 229//75 219//75
f 157//76 18//76 130//76 229//76
f 154//77 230//77 220//77 58//77
f 24//78 117//78 230//78 154//78
f 117//79 61//79 219//79 230//79
f 114//80 231//80 97//80 13//80
f 58//81 220//81 231//81 114//81
f 220//82 80//82 218//82 231//82
f 215//83 232//83 217//83 79//83
f 57//84 153//84 232//84 215//84
f 153//85 19//85 131//85 232//85
f 150//86 233//86 216//86 54//86
f 23//87 113//87 233//87 150//87
f 113//88 57//88 215//88 233//88
f 110//89 234//89 104//89 20//89
f 54//90 216//90 234//90 110//90
f 216//91 79//91 214//91 234//91
f 211//92 235//92 213//92 78//92
f 53//93 149//93 235//93 211//93
f 149//94 16//94 128//94 235//94
f 146//95 236//95 212//95 50//95
f 22//96 109//96 236//96 146//96
f 109//97 53//97 211//97 236//97
f 106//98 237//98 105//98 21//98
f 50//99 212//99 237//99 106//99
f 212//100 78//100 210//100 237//100
f 207//101 238//101 209//101 77//101
f 52//102 148//102 238//102 207//102
f 148//103 22//103 146//103 238//103
f 131//104 239//104 208//104 35//104
f 19//105 108//105 239//105 131//105
f 108//106 52//106 207//106 239//106
f 91//107 240//107 93//107 9//107
f 35//108 208//108 240//108 91//108
f 208//109 77//109 206//109 240//109
f 203//110 241//110 205//110 76//110
f 39//111 95//111 241//111 203//111
f 95//112 11//112 147//112 241//112
f 143//113 242//113 204//113 47//113
f 6//114 135//114 242//114 143//114
f 135//115 39//115 203//115 242//115
f 103//116 243//116 108//116 19//116
f 47//117 204//117 243//117 103//117
f 204//118 76//118 202//118 243//118
f 199//119 244//119 201//119 75//119
f 27//120 83//120 244//120 199//120
f 83//121 2//121 140//121 244//121
f 147//122 245//122 200//122 51//122
f 11//123 123//123 245//123 147//123
f 123//124 27//124 199//124 245//124
f 107//125 246//125 109//125 22//125
f 51//126 200//126 246//126 107//126
f 200//127 75//127 198//127 246//127
f 195//128 247//128 197//128 74//128
f 56//129 152//129 247//129 195//129
f 152//130 23//130 150//130 247//130
f 94//131 248//131 196//131 38//131
f 10//132 112//132 248//132 94//132
f 112//133 56//133 195//133 248//133
f 134//134 249//134 92//134 5//134
f 38//135 196//135 249//135 134//135
f 196//136 74//136 194//136 249//136
f 191//137 250//137 193//137 73//137
f 43//138 99//138 250//138 191//138
f 99//139 15//139 151//139 250//139
f 82//140 251//140 192//140 26//140
f 1//141 139//141 251//141 82//141
f 139//142 43//142 191//142 251//142
f 122//143 252//143 112//143 10//143
f 26//144 192//144 252//144 122//144
f 192//145 73//145 190//145 252//145
f 187//146 253//146 189//146 72//146
f 31//147 87//147 253//147 187//147
f 87//148 6//148 143//148 253//148
f 151//149 254//149 188//149 55//149
f 15//150 127//150 254//150 151//150
f 127//151 31//151 187//151 254//151
f 111//152 255//152 113//152 23//152
f 55//153 188//153 255//153 111//153
f 188//154 72//154 186//154 255//154
f 183//155 256//155 185//155 71//155
f 60//156 156//156 256//156 183//156
f 156//157 24//157 154//157 256//157
f 98//158 257//158 184//158 42//158
f 14//159 116//159 257//159 98//159
f 116//160 60//160 183//160 257//160
f 138//161 258//161 85//161 3//161
f 42//162 184//162 258//162 138//162
f 184//163 71//163 182//163 258//163
f 179//164 259//164 181//164 70//164
f 36//165 132//165 259//165 179//165
f 132//166 20//166 155//166 259//166
f 86//167 260//167 180//167 30//167
f 5//168 92//168 260//168 86//168
f 92//169 36//169 179//169 260//169
f 126//170 261//170 116//170 14//170
f 30//171 180//171 261//171 126//171
f 180//172 70//172 178//172 261//172
f 175//173 262//173 177//173 69//173
f 48//174 144//174 262//174 175//174
f 144//175 9//175 142//175 262//175
f 155//176 263//176 176//176 59//176
f 20//177 104//177 263//177 155//177
f 104//178 48//178 175//178 263//178
f 115//179 264//179 117//179 24//179
f 59//180 176//180 264//180 115//180
f 176//181 69//181 174//181 264//181
f 171//182 265//182 173//182 68//182
f 64//183 160//183 265//183 171//183
f 160//184 25//184 158//184 265//184
f 130//185 266//185 172//185 34//185
f 18//186 120//186 266//186 130//186
f 120//187 64//187 171//187 266//187
f 90//188 267//188 89//188 8//188
f 34//189 172//189 267//189 90//189
f 172//190 68//190 170//190 267//190
f 167//191 268//191 169//191 67//191
f 37//192 133//192 268//192 167//192
f 133//193 21//193 159//193 268//193
f 142//194 269//194 168//194 46//194
f 9//195 93//195 269//195 142//195
f 93//196 37//196 167//196 269//196
f 102//197 270//197 120//197 18//197
f 46//198 168//198 270//198 102//198
f 168//199 67//199 166//199 270//199
f 163//200 271//200 165//200 66//200
f 49//201 145//201 271//201 163//201
f 145//202 7//202 136//202 271//202
f 159//203 272//203 164//203 63//203
f 21//204 105//204 272//204 159//204
f 105//205 49//205 163//205 272//205
f 119//206 273//206 121//206 25//206
f 63//207 164//207 273//207 119//207
f 164//208 66//208 162//208 273//208
f 162//209 274//209 161//209 65//209
f 66//210 165//210 274//210 162//210
f 165//211 40//211 96//211 274//211
f 166//212 275//212 160//212 64//212
f 67//213 169//213 275//213 166//213
f 169//214 63//214 119//214 275//214
f 170//215 276//215 129//215 33//215
f 68//216 173//216 276//216 170//216
f 173//217 62//217 118//217 276//217
f 174//218 277//218 157//218 61//218
f 69//219 177//219 277//219 174//219
f 177//220 46//220 102//220 277//220
f 178//221 278//221 156//221 60//221
f 70//222 181//222 278//222 178//222
f 181//223 59//223 115//223 278//223
f 182//224 279//224 125//224 29//224
f 71//225 185//225 279//225 182//225
f 185//226 58//226 114//226 279//226
f 186//227 280//227 153//227 57//227
f 72//228 189//228 280//228 186//228
f 189//229 47//229 103//229 280//229
f 190//230 281//230 152//230 56//230
f 73//231 193//231 281//231 190//231
f 193//232 55//232 111//232 281//232
f 194//233 282//233 132//233 36//233
f 74//234 197//234 282//234 194//234
f 197//235 54//235 110//235 282//235
f 198//236 283//236 149//236 53//236
f 75//237 201//237 283//237 198//237
f 201//238 44//238 100//238 283//238
f 202//239 284//239 148//239 52//239
f 76//240 205//240 284//240 202//240
f 205//241 51//241 107//241 284//241
f 206//242 285//242 133//242 37//242
f 77//243 209//243 285//243 206//243
f 209//244 50//244 106//244 285//244
f 210//245 286//245 145//245 49//245
f 78//246 213//246 286//246 210//246
f 213//247 32//247 88//247 286//247
f 214//248 287//248 144//248 48//248
f 79//249 217//249 287//249 214//249
f 217//250 35//250 91//250 287//250
f 218//251 288//251 137//251 41//251
f 80//252 221//252 288//252 218//252
f 221//253 34//253 90//253 288//253
f 222//254 289//254 141//254 45//254
f 81//255 225//255 289//255 222//255
f 225//256 28//256 84//256 289//256
